<svg xmlns="http://www.w3.org/2000/svg" viewBox="0 0 965 149"><path d="M1.867 16S0 16 0 18s1.867 2 1.867 2l106.4 2S112 22 112 18s-3.733-4-3.733-4l-106.4 2z" fill="url(#prtcls-gradient)"/><path d="M1.867 72S0 72 0 74s1.867 2 1.867 2l106.4 2S112 78 112 74s-3.733-4-3.733-4l-106.4 2z" fill="url(#prtcls-gradient)"/><path d="M2 2S0 2 0 4s2 2 2 2l90 2s4 0 4-4-4-4-4-4L2 2z" fill="url(#prtcls-gradient)"/><path d="M2 86s-2 0-2 2 2 2 2 2l90 2s4 0 4-4-4-4-4-4L2 86z" fill="url(#prtcls-gradient)"/><path d="M2 100s-2 0-2 2 2 2 2 2l42 2s4 0 4-4-4-4-4-4l-42 2z" fill="url(#prtcls-gradient)"/><path d="M2 114s-2 0-2 2 2 2 2 2l42 2s4 0 4-4-4-4-4-4l-42 2z" fill="url(#prtcls-gradient)"/><path d="M2 128s-2 0-2 2 2 2 2 2l42 2s4 0 4-4-4-4-4-4l-42 2z" fill="url(#prtcls-gradient)"/><path d="M2 142s-2 0-2 2 2 2 2 2l42 2s4 0 4-4-4-4-4-4l-42 2z" fill="url(#prtcls-gradient)"/><path d="M1.818 30S0 30 0 32s1.818 2 1.818 2l114.546 2S120 36 120 32s-3.636-4-3.636-4L1.818 30z" fill="url(#prtcls-gradient)"/><path d="M1.818 58S0 58 0 60s1.818 2 1.818 2l114.546 2S120 64 120 60s-3.636-4-3.636-4L1.818 58z" fill="url(#prtcls-gradient)"/><path d="M1.82 44S0 44 0 46s1.82 2 1.82 2l116.538 2S122 50 122 46s-3.642-4-3.642-4L1.821 44z" fill="url(#prtcls-gradient)"/><path d="M156.3 69.1c9.7 0 17.15 2.5 22.35 7.5 5.2 4.9 7.8 12.15 7.8 21.75V148h-7.2v-13.95c-2.5 4.6-6.15 8.2-10.95 10.8-4.8 2.5-10.55 3.75-17.25 3.75-8.7 0-15.6-2.05-20.7-6.15-5-4.1-7.5-9.5-7.5-16.2 0-6.5 2.3-11.75 6.9-15.75 4.7-4.1 12.15-6.15 22.35-6.15h26.85v-6.3c0-7.3-2-12.85-6-16.65-3.9-3.8-9.65-5.7-17.25-5.7-5.2 0-10.2.9-15 2.7-4.7 1.8-8.7 4.2-12 7.2l-3.75-5.4c3.9-3.5 8.6-6.2 14.1-8.1 5.5-2 11.25-3 17.25-3zm-4.2 73.35c6.5 0 12-1.5 16.5-4.5 4.6-3 8.05-7.35 10.35-13.05v-14.7h-26.7c-7.7 0-13.3 1.4-16.8 4.2-3.4 2.8-5.1 6.65-5.1 11.55 0 5.1 1.9 9.15 5.7 12.15 3.8 2.9 9.15 4.35 16.05 4.35zm72.451-55.65c2.4-5.7 6.15-10.05 11.25-13.05 5.1-3.1 11.3-4.65 18.6-4.65v7.35l-1.8-.15c-8.7 0-15.5 2.75-20.4 8.25-4.9 5.4-7.35 12.95-7.35 22.65V148h-7.5V69.7h7.2v17.1zm92.881 56.25c-1.9 1.8-4.3 3.2-7.2 4.2-2.8.9-5.75 1.35-8.85 1.35-6.8 0-12.05-1.85-15.75-5.55-3.7-3.8-5.55-9.05-5.55-15.75V76.15h-14.4V69.7h14.4V52.6h7.5v17.1h24.9v6.45h-24.9v50.4c0 5.1 1.2 9 3.6 11.7 2.5 2.6 6.15 3.9 10.95 3.9 4.9 0 8.95-1.45 12.15-4.35l3.15 5.25zm20.915-73.35h7.5V148h-7.5V69.7zm3.75-19.05c-1.7 0-3.15-.55-4.35-1.65-1.2-1.2-1.8-2.65-1.8-4.35 0-1.7.6-3.15 1.8-4.35 1.2-1.2 2.65-1.8 4.35-1.8 1.7 0 3.15.6 4.35 1.8 1.2 1.1 1.8 2.5 1.8 4.2 0 1.7-.6 3.15-1.8 4.35-1.2 1.2-2.65 1.8-4.35 1.8zm66.412 97.95c-7.6 0-14.4-1.7-20.4-5.1-6-3.4-10.7-8.1-14.1-14.1-3.4-6.1-5.1-12.95-5.1-20.55 0-7.7 1.7-14.55 5.1-20.55 3.4-6.1 8.1-10.8 14.1-14.1 6-3.4 12.8-5.1 20.4-5.1 6.3 0 12 1.25 17.1 3.75 5.2 2.4 9.4 5.95 12.6 10.65l-5.55 4.05c-2.8-3.9-6.3-6.8-10.5-8.7-4.1-2-8.65-3-13.65-3-6.1 0-11.6 1.4-16.5 4.2-4.8 2.7-8.6 6.55-11.4 11.55-2.7 5-4.05 10.75-4.05 17.25s1.35 12.25 4.05 17.25c2.8 5 6.6 8.9 11.4 11.7 4.9 2.7 10.4 4.05 16.5 4.05 5 0 9.55-.95 13.65-2.85 4.2-2 7.7-4.95 10.5-8.85l5.55 4.05c-3.2 4.7-7.4 8.3-12.6 10.8-5.1 2.4-10.8 3.6-17.1 3.6zm50.834-111.9h7.5V148h-7.5V36.7zm105.262 73.95h-67.35c.2 6.1 1.75 11.55 4.65 16.35 2.9 4.7 6.8 8.35 11.7 10.95 5 2.6 10.6 3.9 16.8 3.9 5.1 0 9.8-.9 14.1-2.7 4.4-1.9 8.05-4.65 10.95-8.25l4.35 4.95c-3.4 4.1-7.7 7.25-12.9 9.45-5.1 2.2-10.65 3.3-16.65 3.3-7.8 0-14.75-1.7-20.85-5.1-6.1-3.4-10.9-8.1-14.4-14.1-3.4-6-5.1-12.85-5.1-20.55 0-7.6 1.6-14.4 4.8-20.4 3.3-6.1 7.8-10.85 13.5-14.25 5.7-3.4 12.1-5.1 19.2-5.1s13.45 1.7 19.05 5.1c5.7 3.3 10.15 7.95 13.35 13.95 3.3 6 4.95 12.8 4.95 20.4l-.15 2.1zm-37.2-34.95c-5.5 0-10.45 1.25-14.85 3.75-4.4 2.4-7.95 5.85-10.65 10.35-2.6 4.4-4.1 9.4-4.5 15h60c-.3-5.6-1.8-10.6-4.5-15s-6.25-7.85-10.65-10.35-9.35-3.75-14.85-3.75zm80.352 72.9c-6.3 0-12.3-.95-18-2.85-5.7-1.9-10.15-4.3-13.35-7.2l3.45-6c3.2 2.7 7.3 4.95 12.3 6.75 5.1 1.8 10.4 2.7 15.9 2.7 7.9 0 13.7-1.3 17.4-3.9 3.8-2.6 5.7-6.2 5.7-10.8 0-3.3-1.05-5.9-3.15-7.8-2-1.9-4.5-3.3-7.5-4.2-3-.9-7.15-1.85-12.45-2.85-6.2-1.1-11.2-2.3-15-3.6-3.8-1.3-7.05-3.4-9.75-6.3s-4.05-6.9-4.05-12c0-6.2 2.55-11.3 7.65-15.3 5.2-4.1 12.55-6.15 22.05-6.15 5 0 9.95.7 14.85 2.1 4.9 1.4 8.9 3.25 12 5.55l-3.45 6c-3.2-2.3-6.85-4.05-10.95-5.25-4.1-1.2-8.3-1.8-12.6-1.8-7.3 0-12.8 1.35-16.5 4.05-3.7 2.7-5.55 6.25-5.55 10.65 0 3.5 1.05 6.25 3.15 8.25 2.1 1.9 4.65 3.35 7.65 4.35 3.1.9 7.4 1.9 12.9 3 6.1 1.1 11 2.3 14.7 3.6 3.8 1.2 7 3.2 9.6 6 2.6 2.8 3.9 6.65 3.9 11.55 0 6.5-2.7 11.7-8.1 15.6-5.4 3.9-13 5.85-22.8 5.85zm137.156.15c-10.3 0-19.6-2.3-27.9-6.9-8.2-4.6-14.7-10.95-19.5-19.05-4.7-8.1-7.05-17.2-7.05-27.3 0-10.1 2.35-19.2 7.05-27.3 4.8-8.1 11.3-14.45 19.5-19.05 8.3-4.6 17.6-6.9 27.9-6.9 7.6 0 14.6 1.25 21 3.75 6.4 2.4 11.85 6 16.35 10.8l-4.8 4.95c-8.4-8.3-19.15-12.45-32.25-12.45-8.8 0-16.8 2-24 6-7.2 4-12.85 9.55-16.95 16.65-4.1 7-6.15 14.85-6.15 23.55 0 8.7 2.05 16.6 6.15 23.7 4.1 7 9.75 12.5 16.95 16.5 7.2 4 15.2 6 24 6 13 0 23.75-4.2 32.25-12.6l4.8 4.95c-4.5 4.8-10 8.45-16.5 10.95-6.4 2.5-13.35 3.75-20.85 3.75zm89.987 0c-7.7 0-15.05-1.3-22.05-3.9-6.9-2.7-12.3-6.15-16.2-10.35l3.45-5.7c3.7 3.9 8.65 7.1 14.85 9.6 6.3 2.4 12.9 3.6 19.8 3.6 10 0 17.55-1.9 22.65-5.7 5.1-3.8 7.65-8.75 7.65-14.85 0-4.7-1.35-8.45-4.05-11.25-2.7-2.8-6.05-4.95-10.05-6.45-4-1.5-9.4-3.05-16.2-4.65-7.7-1.9-13.9-3.75-18.6-5.55-4.6-1.8-8.55-4.55-11.85-8.25-3.2-3.8-4.8-8.85-4.8-15.15 0-5.1 1.35-9.75 4.05-13.95 2.7-4.3 6.8-7.7 12.3-10.2 5.6-2.5 12.55-3.75 20.85-3.75 5.8 0 11.5.85 17.1 2.55 5.6 1.7 10.45 4 14.55 6.9l-2.85 6.15c-4.2-2.9-8.85-5.1-13.95-6.6-5-1.5-9.95-2.25-14.85-2.25-9.7 0-17.05 1.95-22.05 5.85-5 3.9-7.5 8.95-7.5 15.15 0 4.7 1.35 8.45 4.05 11.25 2.7 2.8 6.05 4.95 10.05 6.45 4 1.5 9.45 3.1 16.35 4.8 7.7 1.9 13.85 3.75 18.45 5.55 4.6 1.8 8.5 4.55 11.7 8.25 3.3 3.6 4.95 8.5 4.95 14.7 0 5.1-1.4 9.75-4.2 13.95-2.7 4.2-6.9 7.55-12.6 10.05-5.7 2.5-12.7 3.75-21 3.75zm91.406 0c-7.7 0-15.05-1.3-22.05-3.9-6.9-2.7-12.3-6.15-16.2-10.35l3.45-5.7c3.7 3.9 8.65 7.1 14.85 9.6 6.3 2.4 12.9 3.6 19.8 3.6 10 0 17.55-1.9 22.65-5.7 5.1-3.8 7.65-8.75 7.65-14.85 0-4.7-1.35-8.45-4.05-11.25-2.7-2.8-6.05-4.95-10.05-6.45-4-1.5-9.4-3.05-16.2-4.65-7.7-1.9-13.9-3.75-18.6-5.55-4.6-1.8-8.55-4.55-11.85-8.25-3.2-3.8-4.8-8.85-4.8-15.15 0-5.1 1.35-9.75 4.05-13.95 2.7-4.3 6.8-7.7 12.3-10.2 5.6-2.5 12.55-3.75 20.85-3.75 5.8 0 11.5.85 17.1 2.55 5.6 1.7 10.45 4 14.55 6.9l-2.85 6.15c-4.2-2.9-8.85-5.1-13.95-6.6-5-1.5-9.95-2.25-14.85-2.25-9.7 0-17.05 1.95-22.05 5.85-5 3.9-7.5 8.95-7.5 15.15 0 4.7 1.35 8.45 4.05 11.25 2.7 2.8 6.05 4.95 10.05 6.45 4 1.5 9.45 3.1 16.35 4.8 7.7 1.9 13.85 3.75 18.45 5.55 4.6 1.8 8.5 4.55 11.7 8.25 3.3 3.6 4.95 8.5 4.95 14.7 0 5.1-1.4 9.75-4.2 13.95-2.7 4.2-6.9 7.55-12.6 10.05-5.7 2.5-12.7 3.75-21 3.75z" fill="#9145DE"/><defs><linearGradient id="prtcls-gradient"><stop stop-color="#DE8545"/><stop offset="25%" stop-color="#DE45AB"/><stop offset="75%" stop-color="#9145DE"/></linearGradient></defs></svg>
